# 3ds Max Wavefront OBJ Exporter v0.97b - (c)2007 guruware
# 创建的文件:12.12.2019 15:35:51

mtllib weizhi_huang.mtl

#
# object Pyramid001
#

v  72915.4609 -7085.8506 38711.4297
v  73622.5703 -5085.8506 38711.4297
v  72915.4609 -5085.8506 39418.5352
v  72208.3516 -5085.8506 38711.4297
v  72915.4609 -5085.8506 38004.3242
v  72915.4609 -5085.8506 38711.4297
# 6 vertices

vn 0.6860 -0.2425 0.6860
vn -0.6860 -0.2425 0.6860
vn -0.6860 -0.2425 -0.6860
vn 0.6860 -0.2425 -0.6860
vn -0.0000 1.0000 0.0000
# 5 vertex normals

vt 0.5000 1.0000 0.0000
vt 0.0000 0.0000 0.0000
vt 1.0000 0.0000 0.0000
vt 0.0000 1.0000 0.0000
vt 0.5000 0.5000 0.0000
vt 1.0000 1.0000 0.0000
# 6 texture coords

g Pyramid001
usemtl 07___Default
s 4
f 1/1/1 2/2/1 3/3/1 
s 2
f 1/1/2 3/2/2 4/3/2 
s 16
f 1/1/3 4/2/3 5/3/3 
s 32
f 1/1/4 5/2/4 2/3/4 
s 8
f 2/4/5 6/5/5 3/6/5 
f 3/6/5 6/5/5 4/3/5 
f 4/3/5 6/5/5 5/2/5 
f 5/2/5 6/5/5 2/4/5 
# 8 faces

