# 3ds Max Wavefront OBJ Exporter v0.97b - (c)2007 guruware
# 创建的文件:12.12.2019 15:36:32

mtllib weizhi_lv.mtl

#
# object Pyramid005
#

v  104233.1719 -9566.3018 -60904.7578
v  105223.1250 -6766.3018 -60904.7578
v  104233.1719 -6766.3018 -59914.8086
v  103243.2188 -6766.3018 -60904.7578
v  104233.1719 -6766.3018 -61894.7070
v  104233.1719 -6766.3018 -60904.7578
# 6 vertices

vn 0.6860 -0.2425 0.6860
vn -0.6860 -0.2425 0.6860
vn -0.6860 -0.2425 -0.6860
vn 0.6860 -0.2425 -0.6860
vn -0.0000 1.0000 0.0000
# 5 vertex normals

g Pyramid005
usemtl 06___Default
s 4
f 1//1 2//1 3//1 
s 2
f 1//2 3//2 4//2 
s 16
f 1//3 4//3 5//3 
s 32
f 1//4 5//4 2//4 
s 8
f 2//5 6//5 3//5 
f 3//5 6//5 4//5 
f 4//5 6//5 5//5 
f 5//5 6//5 2//5 
# 8 faces

