# 3ds Max Wavefront OBJ Exporter v0.97b - (c)2007 guruware
# 创建的文件:03.12.2019 15:18:08

mtllib suidao.mtl

#
# object 001
#

v  33.2264 2.9317 12.4453
v  33.2264 1.3240 12.4453
v  33.2264 1.3240 12.4893
v  33.2264 2.9317 12.4893
v  33.2164 1.3240 12.4353
v  31.2566 1.3240 12.4353
v  31.2466 1.3240 12.4453
v  31.2466 1.3240 12.4893
v  31.2566 1.3240 12.4993
v  33.2164 1.3240 12.4993
v  31.2466 2.9317 12.4453
v  31.2466 2.9317 12.4893
v  31.0766 2.9317 12.4353
v  31.0766 1.1338 12.4353
v  31.0766 1.1338 12.4993
v  31.0766 2.9317 12.4993
v  33.3964 1.1338 12.4353
v  33.3964 1.1338 12.4993
v  33.3964 2.9317 12.4353
v  33.3964 2.9317 12.4993
v  31.1766 2.9317 16.5443
v  31.0766 2.9317 16.5443
v  31.0766 1.1338 16.5443
v  33.2964 1.2338 16.5443
v  31.1766 1.2338 16.5443
v  33.3964 1.1338 16.5443
v  33.2964 2.9317 16.5443
v  33.3964 2.9317 16.5443
v  31.1766 1.2338 10.3199
v  33.2964 1.2338 10.3199
v  31.0766 1.1338 10.3199
v  31.1766 2.9317 10.3199
v  31.0766 2.9317 10.3199
v  33.3964 1.1338 10.3199
v  33.2964 2.9317 10.3199
v  33.3964 2.9317 10.3199
v  33.2964 1.2338 12.4353
v  33.2964 2.9317 12.4353
v  33.2264 1.3240 12.6803
v  33.2264 2.9317 12.6803
v  33.2264 2.9317 12.6528
v  33.2264 1.3240 12.6528
v  31.1766 1.2338 12.4353
v  31.2466 1.3240 12.6528
v  31.2466 1.3240 12.6803
v  31.2566 1.3240 12.6903
v  33.2164 1.3240 12.6903
v  33.2164 1.3240 12.6428
v  31.2566 1.3240 12.6428
v  31.1766 2.9317 12.4353
v  31.2466 2.9317 12.6803
v  31.2466 2.9317 12.6528
v  31.0766 1.1338 12.6903
v  31.0766 2.9317 12.6903
v  31.0766 2.9317 12.6428
v  31.0766 1.1338 12.6428
v  33.3964 1.1338 12.6903
v  33.3964 1.1338 12.6428
v  33.3964 2.9317 12.6903
v  33.3964 2.9317 12.6428
v  33.2964 2.9317 12.6903
v  33.2964 1.2338 12.6903
v  33.2964 2.9317 12.4993
v  33.2964 1.2338 12.4993
v  33.2964 1.2338 12.6428
v  33.2964 2.9317 12.6428
v  31.1766 1.2338 12.6903
v  31.1766 1.2338 12.4993
v  31.1766 1.2338 12.6428
v  31.1766 2.9317 12.6903
v  31.1766 2.9317 12.4993
v  31.1766 2.9317 12.6428
v  33.2342 1.3177 12.4353
v  33.2364 2.9317 12.4353
v  31.2388 1.3177 12.4353
v  31.2366 2.9317 12.4353
v  31.2388 1.3177 12.4993
v  31.2366 2.9317 12.4993
v  33.2342 1.3177 12.4993
v  33.2364 2.9317 12.4993
v  33.2342 1.3177 12.6428
v  33.2364 2.9317 12.6428
v  31.2388 1.3177 12.6428
v  31.2366 2.9317 12.6428
v  31.2388 1.3177 12.6903
v  31.2366 2.9317 12.6903
v  33.2342 1.3177 12.6903
v  33.2364 2.9317 12.6903
# 88 vertices

vn -1.0000 0.0000 -0.0000
vn 0.1249 0.9843 0.1249
vn 0.1249 0.9843 -0.1248
vn 0.0856 0.9926 -0.0856
vn -0.0856 0.9926 -0.0856
vn -0.1249 0.9843 -0.1248
vn -0.1249 0.9843 0.1249
vn -0.0856 0.9926 0.0856
vn 0.0856 0.9926 0.0856
vn 1.0000 0.0000 -0.0000
vn -1.0000 -0.0000 -0.0000
vn -0.0000 -1.0000 -0.0000
vn 1.0000 0.0000 0.0000
vn 0.0000 -0.0000 1.0000
vn 0.0000 0.0000 -1.0000
vn 0.0000 1.0000 0.0000
vn -0.1249 0.9843 -0.1249
vn 0.1248 0.9843 -0.1248
vn -0.0000 1.0000 0.0000
vn -0.0000 0.0000 -1.0000
vn -0.0000 -0.0000 1.0000
vn -0.0000 0.0000 1.0000
vn 0.0000 0.0000 1.0000
vn 0.3183 0.8930 -0.3183
vn -0.3183 0.8930 -0.3183
vn -0.3183 0.8930 0.3183
vn 0.3183 0.8930 0.3183
vn -0.7076 0.0010 -0.7067
vn -0.7071 0.0010 -0.7071
vn -0.7900 0.0000 -0.6131
vn -0.7906 0.0000 -0.6124
vn 0.7899 0.0011 -0.6132
vn 0.7902 0.0011 -0.6128
vn 0.7076 0.0000 -0.7067
vn 0.7071 0.0000 -0.7071
vn 0.7076 0.0010 0.7067
vn 0.7071 0.0010 0.7071
vn 0.7900 0.0000 0.6131
vn 0.7906 -0.0000 0.6124
vn -0.7899 0.0011 0.6132
vn -0.7902 0.0011 0.6128
vn -0.7076 0.0000 0.7067
vn -0.7071 -0.0000 0.7071
vn 0.7906 0.0000 0.6124
vn -0.7071 0.0000 0.7071
# 45 vertex normals

g 001
usemtl 06___Default
s 1
f 1//1 2//1 3//1 
f 3//1 4//1 1//1 
s 2
f 3//2 2//3 5//4 
f 5//4 6//5 7//6 
f 7//6 8//7 9//8 
f 5//4 7//6 9//8 
f 3//2 5//4 9//8 
f 10//9 3//2 9//8 
s 1
f 7//10 11//10 12//10 
f 12//10 8//10 7//10 
f 13//11 14//11 15//11 
f 15//11 16//11 13//11 
s 2
f 14//12 17//12 18//12 
f 18//12 15//12 14//12 
s 1
f 17//13 19//13 20//13 
f 20//13 18//13 17//13 
s 4
f 21//14 22//14 23//14 
f 23//14 24//14 25//14 
f 21//14 23//14 25//14 
f 24//14 23//14 26//14 
f 27//14 24//14 26//14 
f 27//14 26//14 28//14 
f 29//15 30//15 31//15 
f 32//15 29//15 31//15 
f 32//15 31//15 33//15 
f 34//15 31//15 30//15 
f 34//15 30//15 35//15 
f 36//15 34//15 35//15 
s 1
f 35//1 30//1 37//1 
f 37//1 38//1 35//1 
f 39//1 40//1 41//1 
f 41//1 42//1 39//1 
s 2
f 30//16 29//16 43//16 
f 43//16 37//16 30//16 
f 44//17 45//7 46//8 
f 46//8 47//9 39//2 
f 39//2 42//18 48//4 
f 46//8 39//2 48//4 
f 44//17 46//8 48//4 
f 49//5 44//17 48//4 
s 1
f 29//10 32//10 50//10 
f 50//10 43//10 29//10 
f 51//10 45//10 44//10 
f 44//10 52//10 51//10 
f 33//11 31//11 14//11 
f 14//11 13//11 33//11 
f 53//11 54//11 55//11 
f 55//11 56//11 53//11 
s 2
f 31//12 34//12 17//12 
f 17//12 14//12 31//12 
f 57//12 53//12 56//12 
f 56//12 58//12 57//12 
s 1
f 34//13 36//13 19//13 
f 19//13 17//13 34//13 
f 59//13 57//13 58//13 
f 58//13 60//13 59//13 
s 2
f 36//19 35//19 38//19 
f 38//19 19//19 36//19 
f 32//16 33//16 13//16 
f 13//16 50//19 32//16 
s 1
f 24//1 27//1 61//1 
f 61//1 62//1 24//1 
f 63//1 64//1 65//1 
f 65//1 66//1 63//1 
s 2
f 25//16 24//16 62//16 
f 62//16 67//16 25//16 
f 64//16 68//16 69//16 
f 69//16 65//16 64//16 
s 1
f 21//10 25//10 67//10 
f 67//10 70//10 21//10 
f 68//10 71//10 72//10 
f 72//10 69//10 68//10 
f 23//11 22//11 54//11 
f 54//11 53//11 23//11 
f 16//11 15//11 56//11 
f 56//11 55//11 16//11 
s 2
f 26//12 23//12 53//12 
f 53//12 57//12 26//12 
f 15//12 18//12 58//12 
f 58//12 56//12 15//12 
s 1
f 28//13 26//13 57//13 
f 57//13 59//13 28//13 
f 18//13 20//13 60//13 
f 60//13 58//13 18//13 
s 2
f 27//19 28//19 59//19 
f 59//19 61//19 27//19 
f 20//19 63//19 66//19 
f 66//19 60//19 20//19 
f 22//16 21//16 70//16 
f 70//16 54//16 22//16 
f 71//16 16//16 55//16 
f 55//16 72//16 71//16 
s 4
f 38//20 37//20 73//20 
f 73//20 74//20 38//20 
f 43//15 75//15 6//20 
f 37//20 43//15 6//20 
f 6//20 5//15 73//20 
f 37//20 6//20 73//20 
f 43//15 50//15 76//15 
f 76//15 75//15 43//15 
f 71//21 68//21 77//21 
f 77//21 78//14 71//21 
f 64//14 79//14 10//21 
f 68//21 64//14 10//21 
f 10//21 9//14 77//21 
f 68//21 10//21 77//21 
f 64//14 63//14 80//14 
f 80//14 79//14 64//14 
f 66//15 65//15 81//15 
f 81//15 82//15 66//15 
f 69//15 83//15 49//15 
f 65//15 69//15 49//15 
f 49//15 48//15 81//15 
f 65//15 49//15 81//15 
f 69//15 72//15 84//15 
f 84//15 83//15 69//15 
f 70//22 67//22 85//22 
f 85//22 86//23 70//22 
f 62//23 87//23 47//14 
f 67//22 62//23 47//14 
f 47//14 46//14 85//22 
f 67//22 47//14 85//22 
f 62//23 61//23 88//23 
f 88//23 87//23 62//23 
s 2
f 38//19 74//16 1//16 
f 1//16 4//16 80//19 
f 38//19 1//16 80//19 
f 19//19 38//19 80//19 
f 19//19 80//19 63//19 
f 19//19 63//19 20//19 
f 66//19 82//16 41//19 
f 41//19 40//19 88//19 
f 66//19 41//19 88//19 
f 60//19 66//19 88//19 
f 60//19 88//19 61//19 
f 60//19 61//19 59//19 
f 71//16 78//16 12//16 
f 12//16 11//16 76//16 
f 71//16 12//16 76//16 
f 16//16 71//16 76//16 
f 16//16 76//16 50//19 
f 16//16 50//19 13//16 
f 70//16 86//16 51//19 
f 51//19 52//19 84//19 
f 70//16 51//19 84//19 
f 54//16 70//16 84//19 
f 54//16 84//19 72//16 
f 54//16 72//16 55//16 
f 73//24 5//4 2//3 
f 75//25 7//6 6//5 
f 77//26 9//8 8//7 
f 79//27 3//2 10//9 
f 81//24 48//4 42//18 
f 83//25 44//17 49//5 
f 85//26 46//8 45//7 
f 87//27 39//2 47//9 
s 8
f 1//28 74//29 73//30 
f 73//30 2//31 1//28 
f 7//32 75//33 76//34 
f 76//34 11//35 7//32 
f 12//36 78//37 77//38 
f 77//38 8//39 12//36 
f 3//40 79//41 80//42 
f 80//42 4//43 3//40 
f 41//28 82//29 81//30 
f 81//30 42//31 41//28 
f 44//32 83//33 84//34 
f 84//34 52//35 44//32 
f 51//36 86//37 85//38 
f 85//38 45//44 51//36 
f 39//40 87//41 88//42 
f 88//42 40//45 39//40 
# 172 faces

