# 3ds Max Wavefront OBJ Exporter v0.97b - (c)2007 guruware
# 创建的文件:05.12.2019 15:17:23

mtllib jifang.mtl

#
# object Rectangle016
#

v  2.0736 8.4878 7.3569
v  -2.0736 8.4878 7.3569
v  -2.0736 8.4878 12.3569
v  2.0736 8.4878 12.3569
v  2.7100 8.3154 7.3569
v  2.7100 8.3154 12.3569
v  3.1626 7.8627 7.3569
v  3.1626 7.8627 12.3569
v  3.3350 7.2263 7.3569
v  3.3350 7.2263 12.3569
v  3.3350 3.3185 7.3569
v  3.3350 3.3185 12.3569
v  3.2712 3.0831 7.3569
v  3.2712 3.0831 12.3569
v  3.1037 2.9156 7.3569
v  3.1037 2.9156 12.3569
v  2.8683 2.8518 7.3569
v  2.8683 2.8518 12.3569
v  -2.8683 2.8518 7.3569
v  -2.8683 2.8518 12.3569
v  -3.1037 2.9156 7.3569
v  -3.1037 2.9156 12.3569
v  -3.2712 3.0831 7.3569
v  -3.2712 3.0831 12.3569
v  -3.3350 3.3185 7.3569
v  -3.3350 3.3185 12.3569
v  -3.3350 7.2263 7.3569
v  -3.3350 7.2263 12.3569
v  -3.1626 7.8627 7.3569
v  -3.1626 7.8627 12.3569
v  -2.7100 8.3154 7.3569
v  -2.7100 8.3154 12.3569
# 32 vertices

vn 0.1319 0.9913 -0.0000
vn -0.1319 0.9913 -0.0000
vn 0.5012 0.8653 -0.0000
vn 0.8653 0.5012 -0.0000
vn 0.9913 0.1319 0.0000
vn 0.9913 -0.1319 0.0000
vn 0.8653 -0.5012 0.0000
vn 0.5012 -0.8653 0.0000
vn 0.1319 -0.9913 0.0000
vn -0.1319 -0.9913 0.0000
vn -0.5012 -0.8653 0.0000
vn -0.8653 -0.5012 0.0000
vn -0.9913 -0.1319 -0.0000
vn -0.9913 0.1319 -0.0000
vn -0.8654 0.5012 -0.0000
vn -0.5012 0.8653 -0.0000
vn -0.0000 0.0000 1.0000
vn 0.0000 -0.0000 -1.0000
# 18 vertex normals

vt 0.8109 0.9001 0.9225
vt 0.1891 0.9001 0.9225
vt 0.1891 0.0999 0.9225
vt 0.8109 0.0999 0.9225
vt 0.9063 0.9001 0.8967
vt 0.9063 0.0999 0.8967
vt 0.9742 0.9001 0.8288
vt 0.9742 0.0999 0.8288
vt 0.2666 0.9001 0.0000
vt 0.1712 0.9001 0.0258
vt 0.1712 0.0999 0.0258
vt 0.2666 0.0999 0.0000
vt 0.8525 0.9001 0.0000
vt 0.8525 0.0999 0.0000
vt 0.8878 0.9001 0.0096
vt 0.8878 0.0999 0.0096
vt 0.0347 0.9001 0.0871
vt 0.0096 0.9001 0.1122
vt 0.0096 0.0999 0.1122
vt 0.0347 0.0999 0.0871
vt 0.0700 0.9001 0.0775
vt 0.0700 0.0999 0.0775
vt 0.9300 0.9001 0.0775
vt 0.9300 0.0999 0.0775
vt 0.9653 0.9001 0.0871
vt 0.9653 0.0999 0.0871
vt 0.9904 0.9001 0.1122
vt 0.9904 0.0999 0.1122
vt 0.1475 0.9001 1.0000
vt 0.1122 0.9001 0.9904
vt 0.1122 0.0999 0.9904
vt 0.1475 0.0999 1.0000
vt 0.7334 0.9001 1.0000
vt 0.7334 0.0999 1.0000
vt 0.8288 0.9001 0.9742
vt 0.8288 0.0999 0.9742
vt 0.0937 0.9001 0.8967
vt 0.0258 0.9001 0.8288
vt 0.0258 0.0999 0.8288
vt 0.0937 0.0999 0.8967
vt 0.0000 0.1475 0.0999
vt 0.0096 0.1122 0.0999
vt 0.0347 0.0871 0.0999
vt 0.0700 0.0775 0.0999
vt 0.0000 0.7334 0.0999
vt 0.0258 0.8288 0.0999
vt 0.0937 0.8967 0.0999
vt 0.1891 0.9225 0.0999
vt 0.8109 0.9225 0.0999
vt 0.9063 0.8967 0.0999
vt 0.9742 0.8288 0.0999
vt 1.0000 0.7334 0.0999
vt 0.9300 0.0775 0.0999
vt 1.0000 0.1475 0.0999
vt 0.9904 0.1122 0.0999
vt 0.9653 0.0871 0.0999
vt 0.0096 0.1122 0.9001
vt 0.0347 0.0871 0.9001
vt 0.0700 0.0775 0.9001
vt 0.9653 0.0871 0.9001
vt 0.9904 0.1122 0.9001
vt 1.0000 0.1475 0.9001
vt 0.9300 0.0775 0.9001
vt 1.0000 0.7334 0.9001
vt 0.9742 0.8288 0.9001
vt 0.9063 0.8967 0.9001
vt 0.8109 0.9225 0.9001
vt 0.1891 0.9225 0.9001
vt 0.0937 0.8967 0.9001
vt 0.0258 0.8288 0.9001
vt 0.0000 0.7334 0.9001
vt 0.0000 0.1475 0.9001
# 72 texture coords

g Rectangle016
usemtl 07___Default
s 1
f 1/1/1 2/2/2 3/3/2 
f 3/3/2 4/4/1 1/1/1 
s 3
f 5/5/3 1/1/1 4/4/1 
f 4/4/1 6/6/3 5/5/3 
s 2
f 7/7/4 5/5/3 6/6/3 
f 6/6/3 8/8/4 7/7/4 
f 9/9/5 7/10/4 8/11/4 
f 8/11/4 10/12/5 9/9/5 
f 11/13/6 9/9/5 10/12/5 
f 10/12/5 12/14/6 11/13/6 
f 13/15/7 11/13/6 12/14/6 
f 12/14/6 14/16/7 13/15/7 
f 15/17/8 13/18/7 14/19/7 
f 14/19/7 16/20/8 15/17/8 
f 17/21/9 15/17/8 16/20/8 
f 16/20/8 18/22/9 17/21/9 
f 19/23/10 17/21/9 18/22/9 
f 18/22/9 20/24/10 19/23/10 
f 21/25/11 19/23/10 20/24/10 
f 20/24/10 22/26/11 21/25/11 
f 23/27/12 21/25/11 22/26/11 
f 22/26/11 24/28/12 23/27/12 
f 25/29/13 23/30/12 24/31/12 
f 24/31/12 26/32/13 25/29/13 
f 27/33/14 25/29/13 26/32/13 
f 26/32/13 28/34/14 27/33/14 
f 29/35/15 27/33/14 28/34/14 
f 28/34/14 30/36/15 29/35/15 
f 31/37/16 29/38/15 30/39/15 
f 30/39/15 32/40/16 31/37/16 
s 3
f 2/2/2 31/37/16 32/40/16 
f 32/40/16 3/3/2 2/2/2 
s 16
f 26/41/17 24/42/17 22/43/17 
f 26/41/17 22/43/17 20/44/17 
f 28/45/17 26/41/17 20/44/17 
f 30/46/17 28/45/17 20/44/17 
f 32/47/17 30/46/17 20/44/17 
f 3/48/17 32/47/17 20/44/17 
f 4/49/17 3/48/17 20/44/17 
f 6/50/17 4/49/17 20/44/17 
f 8/51/17 6/50/17 20/44/17 
f 10/52/17 8/51/17 20/44/17 
f 10/52/17 20/44/17 18/53/17 
f 12/54/17 10/52/17 18/53/17 
f 14/55/17 12/54/17 18/53/17 
f 14/55/17 18/53/17 16/56/17 
f 13/57/18 15/58/18 17/59/18 
f 21/60/18 23/61/18 25/62/18 
f 19/63/18 21/60/18 25/62/18 
f 19/63/18 25/62/18 27/64/18 
f 19/63/18 27/64/18 29/65/18 
f 19/63/18 29/65/18 31/66/18 
f 19/63/18 31/66/18 2/67/18 
f 19/63/18 2/67/18 1/68/18 
f 19/63/18 1/68/18 5/69/18 
f 19/63/18 5/69/18 7/70/18 
f 19/63/18 7/70/18 9/71/18 
f 17/59/18 19/63/18 9/71/18 
f 17/59/18 9/71/18 11/72/18 
f 13/57/18 17/59/18 11/72/18 
# 60 faces

