# 3ds Max Wavefront OBJ Exporter v0.97b - (c)2007 guruware
# 创建的文件:05.12.2019 09:52:43

mtllib shui_huangdigou.mtl

#
# object 对象007
#

v  46.4259 -2.2902 -24.2780
v  44.2383 -2.2902 -28.0671
v  44.2383 0.6933 -28.0671
v  46.4259 0.6933 -24.2780
v  8.6411 -2.2902 -7.5150
v  8.6411 0.6933 -7.5150
v  10.8288 0.6933 -3.7259
v  10.8288 -2.2902 -3.7259
# 8 vertices

vn 0.8660 -0.0000 -0.5000
vn -0.5000 -0.0000 -0.8660
vn 0.0000 1.0000 -0.0000
vn 0.5000 -0.0000 0.8660
vn -0.0000 -1.0000 -0.0000
vn -0.0000 -1.0000 0.0000
vn -0.8660 -0.0000 0.5000
# 7 vertex normals

vt 0.1590 1.0000 -2.8203
vt 0.1590 -0.0000 -2.8203
vt 0.8410 -0.0000 -2.8203
vt 0.8410 1.0000 -2.8203
vt 3.8203 0.8410 -0.0000
vt 3.8203 0.1590 -0.0000
vt 13.2155 0.1590 -0.0000
vt 13.2155 0.8410 -0.0000
vt 3.8203 1.0000 0.8410
vt 3.8203 -0.0000 0.8410
vt 13.2155 -0.0000 0.8410
vt 13.2155 1.0000 0.8410
vt -2.8203 0.1590 1.0000
vt -2.8203 0.8410 1.0000
vt -12.2155 0.8410 1.0000
vt -12.2155 0.1590 1.0000
vt -2.8203 -0.0000 0.1590
vt -2.8203 1.0000 0.1590
vt -12.2155 1.0000 0.1590
vt -12.2155 -0.0000 0.1590
vt -2.8203 -0.0000 0.8410
vt -2.8203 1.0000 0.8410
vt -12.2155 1.0000 0.8410
vt -12.2155 -0.0000 0.8410
vt 0.8410 1.0000 -12.2155
vt 0.1590 1.0000 -12.2155
vt 0.1590 -0.0000 -12.2155
vt 0.8410 -0.0000 -12.2155
# 28 texture coords

g 对象007
usemtl 03___Default
s 16
f 1/1/1 2/2/1 3/3/1 
f 3/3/1 4/4/1 1/1/1 
s 2
f 3/5/2 2/6/2 5/7/2 
f 5/7/2 6/8/2 3/5/2 
s 4
f 4/9/3 3/10/3 6/11/3 
f 6/11/3 7/12/3 4/9/3 
s 1
f 1/13/4 4/14/4 7/15/4 
f 7/15/4 8/16/4 1/13/4 
s 4
f 2/17/5 1/18/5 8/19/5 
f 8/19/5 5/20/5 2/17/5 
s 1
f 3/21/6 4/22/6 7/23/6 
f 7/23/6 6/24/6 3/21/6 
s off
f 8/25/7 7/26/7 6/27/7 
f 6/27/7 5/28/7 8/25/7 
# 14 faces

