# 3ds Max Wavefront OBJ Exporter v0.97b - (c)2007 guruware
# 创建的文件:03.12.2019 18:09:20

mtllib shui_sanhekou.mtl

#
# object 对象006
#

v  -2.1876 -2.2902 24.4688
v  2.1877 -2.2902 24.4688
v  2.1877 0.6933 24.4688
v  -2.1876 0.6933 24.4688
v  2.1877 -2.2902 11.2410
v  2.1877 0.6933 11.2410
v  -2.1877 0.6933 11.2410
v  -2.1876 -2.2902 11.2410
# 8 vertices

vn 0.0000 -0.0000 1.0000
vn 1.0000 -0.0000 -0.0000
vn 0.0000 1.0000 0.0000
vn -1.0000 -0.0000 0.0000
vn 0.0000 -1.0000 -0.0000
vn -0.0000 -1.0000 -0.0000
vn 0.0000 0.0000 -1.0000
vn -0.0000 0.0000 -1.0000
# 8 vertex normals

vt 0.0000 0.1590 2.0118
vt 1.0000 0.1590 2.0118
vt 1.0000 0.8410 2.0118
vt 0.0000 0.8410 2.0118
vt 0.8410 2.0118 1.0000
vt 0.1590 2.0118 1.0000
vt 0.1590 -1.0118 1.0000
vt 0.8410 -1.0118 1.0000
vt 1.0000 2.0118 0.8410
vt 0.0000 2.0118 0.8410
vt 0.0000 -1.0118 0.8410
vt 1.0000 -1.0118 0.8410
vt 0.8410 2.0118 0.0000
vt 0.1590 2.0118 0.0000
vt 0.1590 -1.0118 0.0000
vt 0.8410 -1.0118 0.0000
vt 1.0000 2.0118 0.1590
vt 0.0000 2.0118 0.1590
vt 0.0000 -1.0118 0.1590
vt 1.0000 -1.0118 0.1590
vt 1.0000 0.1590 -1.0118
vt 1.0000 0.8410 -1.0118
vt 0.0000 0.8410 -1.0118
vt 0.0000 0.1590 -1.0118
# 24 texture coords

g 对象006
usemtl 03___Default
s 16
f 1/1/1 2/2/1 3/3/1 
f 3/3/1 4/4/1 1/1/1 
s 2
f 3/5/2 2/6/2 5/7/2 
f 5/7/2 6/8/2 3/5/2 
s 4
f 4/9/3 3/10/3 6/11/3 
f 6/11/3 7/12/3 4/9/3 
s 1
f 1/13/4 4/14/4 7/15/4 
f 7/15/4 8/16/4 1/13/4 
s 4
f 2/17/5 1/18/5 8/19/5 
f 8/19/5 5/20/5 2/17/5 
s 1
f 3/9/6 4/10/6 7/11/6 
f 7/11/6 6/12/6 3/9/6 
s off
f 8/21/7 7/22/7 6/23/7 
f 6/23/8 5/24/8 8/21/8 
# 14 faces

