# 3ds Max Wavefront OBJ Exporter v0.97b - (c)2007 guruware
# 创建的文件:03.12.2019 18:08:45

mtllib shui_zong.mtl

#
# object Arc027
#

v  2.1877 0.6933 11.2410
v  2.1877 -2.2902 11.2410
v  2.1876 -2.2902 1.2630
v  2.1877 0.6933 1.2630
v  -0.0000 0.6933 0.0000
v  -2.0144 0.6933 1.1630
v  -2.1877 0.6933 1.4630
v  -2.1877 0.6933 11.2410
v  -2.1876 -2.2902 11.2410
v  -2.1876 -2.2902 1.4630
v  -2.0144 -2.2902 1.1630
v  0.0000 -2.2902 -0.0000
v  8.6411 -2.2902 -7.5150
v  0.1533 -2.2902 -2.6146
v  -0.0000 -2.1132 -2.5261
v  8.6411 0.6933 -7.5150
v  0.1533 0.6933 -2.6146
v  -0.0000 0.5163 -2.5261
v  -0.0000 0.6933 -2.3491
v  10.8288 0.6933 -3.7259
v  10.8288 -2.2902 -3.7259
v  -0.0000 -2.2902 -2.3491
v  -10.8288 0.6933 -3.7259
v  -10.8288 -2.2902 -3.7259
v  -2.3609 -2.2902 1.1630
v  -2.3609 0.6933 1.1630
v  0.0000 0.6933 -0.0000
v  -0.1533 0.6933 -2.6146
v  -8.6411 0.6933 -7.5150
v  -8.6411 -2.2902 -7.5150
v  -0.1533 -2.2902 -2.6146
# 31 vertices

vn 1.0000 -0.0000 -0.0000
vn 0.0000 1.0000 0.0000
vn -1.0000 -0.0000 0.0000
vn -0.9131 0.3262 0.2447
vn -0.9659 -0.0000 0.2588
vn 0.0000 -1.0000 -0.0000
vn -0.0000 -1.0000 -0.0000
vn -0.5000 -0.0000 -0.8660
vn 0.0000 1.0000 -0.0000
vn 0.5000 -0.0000 0.8660
vn 0.0000 -1.0000 0.0000
vn -0.0000 -1.0000 0.0000
vn -0.5000 -0.0000 0.8660
vn -0.7071 -0.0000 0.7071
vn -0.0000 1.0000 -0.0000
vn -0.0000 1.0000 0.0000
vn 0.5000 -0.0000 -0.8660
vn 0.0000 -0.0000 1.0000
vn -0.0000 -0.0000 1.0000
vn -0.8660 0.0000 -0.5000
vn -0.8660 -0.0000 -0.5000
vn 0.8660 0.0000 -0.5000
vn 1.0000 0.0000 -0.0000
vn 0.0000 0.0000 -0.0000
vn -0.0000 -0.4472 -0.8944
vn 0.7746 -0.4472 -0.4472
vn -0.7746 -0.4472 -0.4472
# 27 vertex normals

vt 0.8410 2.6435 1.0000
vt 0.1590 2.6435 1.0000
vt 0.1590 0.3629 1.0000
vt 0.8410 0.3629 1.0000
vt 0.5000 0.0742 0.8410
vt 0.9604 0.3400 0.8410
vt 1.0000 0.4086 0.8410
vt 1.0000 2.6435 0.8410
vt -0.0000 2.6435 0.8410
vt -0.0000 0.3629 0.8410
vt 0.8410 2.6435 -0.0000
vt 0.1590 2.6435 -0.0000
vt 0.1590 0.4086 -0.0000
vt 0.8410 0.4086 -0.0000
vt -0.0000 2.6435 0.1590
vt -0.0000 0.4086 0.1590
vt 0.0396 0.3400 0.1590
vt 1.0000 2.6435 0.1590
vt 1.0000 0.3629 0.1590
vt 0.5000 0.0742 0.1590
vt -0.0000 0.4086 0.8410
vt 0.0396 0.3400 0.8410
vt 1.0000 0.3629 0.8410
vt -1.4751 0.1590 -1.6435
vt 0.4650 0.1590 -0.5234
vt 0.5000 0.1995 -0.5032
vt -1.4751 0.8410 -1.6435
vt 0.4650 0.8410 -0.5234
vt 0.5000 0.8005 -0.5032
vt -1.4751 -1.6435 0.8410
vt 0.4650 -0.5234 0.8410
vt 0.5000 -0.4628 0.8410
vt -1.9751 -0.7775 0.8410
vt 2.9751 0.1590 -0.7775
vt 2.9751 0.8410 -0.7775
vt 1.0000 0.8410 0.3629
vt 1.0000 0.1590 0.3629
vt 0.5000 -0.4628 0.1590
vt 0.5350 -0.5234 0.1590
vt 2.4751 -1.6435 0.1590
vt 2.9751 -0.7775 0.1590
vt 0.5350 -0.5234 0.8410
vt 2.4751 -1.6435 0.8410
vt 2.9751 -0.7775 0.8410
vt -1.9751 0.8410 -0.7775
vt -1.9751 0.1590 -0.7775
vt -0.0396 0.1590 0.3400
vt -0.0396 0.8410 0.3400
vt 1.0396 0.3400 0.8410
vt 2.4751 0.8410 -1.6435
vt 0.5350 0.8410 -0.5234
vt 2.4751 0.1590 -1.6435
vt 0.5350 0.1590 -0.5234
vt -0.0396 0.3400 0.1590
vt -1.4751 -1.6435 0.1590
vt 0.4650 -0.5234 0.1590
vt -1.9751 -0.7775 0.1590
vt -0.0396 0.3400 0.8410
vt -0.0000 0.8410 2.6435
vt -0.0000 0.1590 2.6435
vt 1.0000 0.1590 2.6435
vt 1.0000 0.8410 2.6435
vt 0.1590 -1.6435 -1.4751
vt 0.8410 -1.6435 -1.4751
vt 0.8410 -0.7775 -1.9751
vt 0.1590 -0.7775 -1.9751
vt 0.8410 -0.7775 2.9751
vt 0.1590 -0.7775 2.9751
vt 0.1590 -1.6435 2.4751
vt 0.8410 -1.6435 2.4751
vt 0.8410 0.3400 -0.0396
vt 0.8410 0.3400 0.0396
vt 0.1590 0.3400 -0.0396
vt 0.5000 0.8410 -0.4628
vt 0.5000 -0.5032 0.1995
# 75 texture coords

g Arc027
usemtl 03___Default
s 1
f 1/1/1 2/2/1 3/3/1 
f 3/3/1 4/4/1 1/1/1 
s 2
f 5/5/2 6/6/2 7/7/2 
f 8/8/2 1/9/2 4/10/2 
f 7/7/2 8/8/2 4/10/2 
f 5/5/2 7/7/2 4/10/2 
s 1
f 9/11/3 8/12/3 7/13/4 
f 7/13/4 10/14/5 9/11/3 
s 2
f 9/15/6 10/16/7 11/17/6 
f 2/18/6 9/15/6 11/17/6 
f 3/19/7 2/18/6 11/17/6 
f 12/20/6 3/19/7 11/17/6 
s 4
f 8/9/7 7/21/7 6/22/7 
f 1/8/6 8/9/7 6/22/7 
f 4/23/6 1/8/6 6/22/7 
f 5/5/7 4/23/6 6/22/7 
s 1
f 13/24/8 14/25/8 15/26/8 
f 16/27/8 13/24/8 15/26/8 
f 17/28/8 16/27/8 15/26/8 
f 18/29/8 17/28/8 15/26/8 
s 8
f 16/30/9 17/31/9 19/32/9 
f 20/33/9 16/30/9 19/32/9 
f 4/10/9 20/33/9 19/32/9 
f 5/5/9 4/10/9 19/32/9 
s 4
f 21/34/10 20/35/10 4/36/10 
f 4/36/10 3/37/10 21/34/10 
s 2
f 12/20/6 22/38/11 14/39/6 
f 13/40/7 21/41/7 3/19/7 
f 14/39/6 13/40/7 3/19/7 
f 12/20/6 14/39/6 3/19/7 
s 16
f 5/5/12 19/32/11 17/42/12 
f 16/43/12 20/44/12 4/23/12 
f 17/42/12 16/43/12 4/23/12 
f 5/5/12 17/42/12 4/23/12 
s 1
f 23/45/13 24/46/13 25/47/14 
f 25/47/14 26/48/14 23/45/13 
s 2
f 27/5/15 19/32/15 28/42/15 
f 23/44/15 26/49/16 6/6/15 
f 29/43/15 23/44/15 6/6/15 
f 28/42/15 29/43/15 6/6/15 
f 27/5/15 28/42/15 6/6/15 
s 4
f 29/50/17 28/51/17 18/29/17 
f 30/52/17 29/50/17 18/29/17 
f 31/53/17 30/52/17 18/29/17 
f 15/26/17 31/53/17 18/29/17 
s 2
f 12/20/6 11/17/6 25/54/6 
f 30/55/11 31/56/6 22/38/11 
f 24/57/11 30/55/11 22/38/11 
f 25/54/6 24/57/11 22/38/11 
f 12/20/6 25/54/6 22/38/11 
s 32
f 27/5/11 6/22/11 26/58/11 
f 29/30/11 28/31/12 19/32/11 
f 23/33/11 29/30/11 19/32/11 
f 26/58/11 23/33/11 19/32/11 
f 27/5/11 26/58/11 19/32/11 
s 4
f 8/59/18 9/60/18 2/61/18 
f 2/61/18 1/62/19 8/59/18 
s 8
f 29/63/20 30/64/21 24/65/20 
f 24/65/20 23/66/20 29/63/20 
s 16
f 20/67/22 21/68/22 13/69/22 
f 13/69/22 16/70/22 20/67/22 
s 2
f 11/17/6 10/16/7 25/54/6 
s 1
f 26/71/23 6/72/23 26/71/14 
f 26/71/23 26/71/14 7/14/4 
f 26/71/23 7/14/4 6/72/16 
f 26/71/23 6/72/16 7/14/6 
f 7/13/4 26/73/14 25/71/14 
f 25/71/14 10/14/5 7/13/4 
s off
f 17/28/24 19/74/24 17/28/24 
f 17/28/24 17/28/24 18/29/24 
f 17/28/25 18/29/25 28/51/25 
f 17/28/15 28/51/15 19/74/15 
f 17/28/11 19/74/11 28/51/11 
f 22/38/26 31/56/26 15/75/26 
f 15/75/27 14/39/27 22/38/27 
# 75 faces

