<svg xmlns="http://www.w3.org/2000/svg" viewBox="0 0 31.7 26.13"><defs><style>.cls-1{fill:#fff;}</style></defs><title>piif_logo白_1</title><g id="图层_2" data-name="图层 2"><g id="图层_1_图像" data-name="图层 1 图像"><path class="cls-1" d="M31.59,6.8c-.4-.7-3.8-6.72-3.83-6.8H4.22S1.3,4.88.08,6.87a.33.33,0,0,0,0,.4C1.32,9.31,11.55,26,11.55,26.13h8.72s-3.16-5.53-3.82-6.66c-.24-.41-.23-.42.26-.42h7.51a.68.68,0,0,0,.56-.36c.83-1.38,5.67-9.37,6.77-11.12A.66.66,0,0,0,31.59,6.8ZM22.15,8.56C21,10.48,17,16.88,16.22,18.15c-.25.42-.25.41-.51,0-.78-1.31-4.54-7.55-5.62-9.36-.36-.61-.34-.62.36-.62H21.92C22.37,8.14,22.39,8.17,22.15,8.56Z"/></g></g></svg>